<svg xmlns="http://www.w3.org/2000/svg" width="1200" height="675" viewBox="0 0 1200 675" role="img" aria-labelledby="title desc"><title id="title">MyAudio</title><desc id="desc">Audio website</desc><defs><linearGradient id="g" x1="0" y1="0" x2="1" y2="1"><stop offset="0%" stop-color="#f4f2ee"/><stop offset="100%" stop-color="#ebe8e2"/></linearGradient></defs>
        <rect x="0" y="0" width="1200" height="675" fill="url(#g)"/>
        <rect x="70" y="70" width="1060" height="535" rx="38" fill="#3f3f42"/>
        <circle cx="1010" cy="145" r="65" fill="#8ea184" opacity="0.95"/>
        <circle cx="932" cy="210" r="30" fill="#8ea184" opacity="0.75"/>
        <rect x="160" y="150" width="520" height="330" rx="24" fill="#f5f4f1" opacity="0.96"/>
        <rect x="200" y="200" width="440" height="38" rx="12" fill="#8ea184"/>
        <rect x="200" y="268" width="340" height="26" rx="10" fill="#d7d2ca"/>
        <rect x="200" y="316" width="390" height="26" rx="10" fill="#d7d2ca"/>
        <rect x="200" y="392" width="180" height="50" rx="20" fill="#3f3f42"/>
        <path d="M805 390 C755 390 715 350 715 300 C715 250 755 210 805 210 C855 210 895 250 895 300 C895 350 855 390 805 390Z" fill="none" stroke="#8ea184" stroke-width="28"/>
        <path d="M850 345 L940 435" stroke="#8ea184" stroke-width="32" stroke-linecap="round"/>
        <text x="160" y="560" font-family="Comfortaa, Arial, sans-serif" font-size="70" font-weight="700" fill="#f5f4f1">MyAudio</text>
        <text x="162" y="614" font-family="Century Gothic, Arial, sans-serif" font-size="34" fill="#f5f4f1">Audio website</text></svg>